<?xml version="1.0" standalone="no"?>
<!DOCTYPE svg PUBLIC "-//W3C//DTD SVG 20010904//EN"
 "http://www.w3.org/TR/2001/REC-SVG-20010904/DTD/svg10.dtd">
<svg version="1.0" xmlns="http://www.w3.org/2000/svg"
 width="1280.000000pt" height="1035.000000pt" viewBox="0 0 1280.000000 1035.000000"
 preserveAspectRatio="xMidYMid meet">
<metadata>
Created by potrace 1.15, written by Peter Selinger 2001-2017
</metadata>
<g transform="translate(0.000000,1035.000000) scale(0.100000,-0.100000)"
fill="#000000" stroke="none">
<path d="M5695 10331 c-73 -33 -248 -173 -384 -305 -400 -392 -783 -967 -855
-1286 -9 -40 -15 -74 -13 -77 7 -6 97 119 168 232 161 258 333 500 458 645
239 280 496 512 597 540 60 17 159 4 185 -24 12 -11 101 -140 199 -286 164
-244 297 -434 524 -745 203 -280 291 -553 325 -1010 19 -247 17 -274 -44 -539
-31 -131 -58 -242 -60 -246 -2 -4 -48 -10 -102 -14 -179 -12 -323 -55 -331
-97 -4 -20 86 -29 275 -29 114 0 124 -1 119 -17 -3 -10 -19 -66 -35 -124 -53
-183 -47 -175 -143 -189 -130 -19 -287 -74 -267 -94 3 -3 71 -9 152 -12 81 -4
147 -10 147 -13 0 -3 -30 -77 -67 -163 l-67 -157 -54 -28 c-228 -115 -269
-368 -81 -498 62 -43 69 -23 25 67 -42 85 -46 139 -16 198 42 83 155 134 280
128 99 -4 182 -44 279 -134 128 -119 209 -255 236 -400 27 -142 49 -185 102
-199 63 -16 163 76 178 164 30 178 -327 609 -582 704 -45 16 -81 21 -163 22
-58 0 -122 -4 -142 -8 l-37 -8 72 104 c40 57 86 127 102 155 35 61 0 57 358
43 463 -19 737 -23 737 -12 0 19 -101 69 -182 91 -117 31 -264 48 -549 62
l-257 12 14 40 c17 47 38 128 54 209 l11 57 373 0 c375 0 496 5 496 22 0 12
-73 42 -154 62 -134 33 -264 48 -479 53 -194 5 -217 8 -213 22 3 9 12 99 21
201 26 305 33 370 55 490 69 382 10 713 -204 1139 -124 247 -174 324 -482 737
-95 127 -211 285 -258 352 -91 128 -118 153 -181 171 -56 15 -94 13 -140 -8z"/>
<path d="M200 9703 c-88 -46 -148 -216 -182 -513 -17 -152 -17 -754 0 -960 44
-530 123 -974 216 -1217 92 -241 233 -505 369 -693 20 -27 30 -63 46 -162 57
-352 141 -584 250 -692 l49 -48 -53 -107 c-65 -130 -98 -211 -86 -211 6 0 11
-12 13 -27 3 -25 14 -13 107 112 57 77 107 144 111 148 4 4 56 -22 115 -57 60
-36 113 -67 119 -69 6 -2 -8 -26 -30 -53 -22 -27 -59 -76 -81 -109 -42 -63
-117 -205 -111 -211 2 -2 84 66 182 151 l178 153 64 -28 c76 -35 84 -26 14 15
-28 16 -49 32 -48 36 5 9 137 122 338 286 102 83 219 183 260 222 l75 71 -70
-26 c-96 -35 -217 -94 -295 -145 -69 -44 -261 -189 -367 -277 l-64 -53 -32 22
c-60 42 -187 144 -187 150 0 13 159 205 242 294 47 50 163 160 257 245 94 85
167 156 161 158 -17 6 -298 -145 -383 -205 -122 -88 -305 -278 -367 -381 -9
-15 -12 -15 -35 11 -74 83 -179 312 -280 606 -34 102 -86 247 -113 321 -142
381 -251 853 -312 1354 -57 467 -65 1194 -16 1476 13 70 20 88 48 117 42 44
98 73 141 73 45 0 210 -57 498 -173 628 -253 1015 -446 1303 -652 95 -68 107
-62 50 25 -51 79 -105 132 -219 215 -266 193 -720 428 -1260 650 -395 162
-537 199 -615 158z"/>
<path d="M5510 9383 c-66 -34 -120 -100 -171 -208 -91 -193 -129 -429 -87
-538 15 -39 32 -29 39 24 9 58 37 127 116 284 133 265 191 413 176 450 -7 20
-11 19 -73 -12z"/>
<path d="M647 8938 c-18 -13 -17 -16 17 -46 55 -48 216 -154 461 -302 431
-261 448 -276 410 -351 -9 -16 -14 -33 -11 -38 3 -4 48 -18 101 -31 88 -21 97
-22 112 -7 15 15 15 20 -1 61 -74 193 -370 462 -679 617 -149 75 -370 127
-410 97z"/>
<path d="M5535 8696 c-41 -18 -105 -91 -105 -120 0 -31 52 -101 89 -121 61
-31 126 -13 155 43 25 49 29 95 10 140 -25 65 -82 87 -149 58z"/>
<path d="M3783 8671 c-53 -25 -87 -76 -109 -166 -48 -201 -172 -324 -300 -300
-97 18 -154 65 -302 251 -105 132 -157 174 -213 174 -57 0 -92 -22 -115 -72
-16 -36 -19 -65 -18 -188 0 -137 3 -152 37 -268 20 -67 43 -135 51 -150 l15
-27 16 38 c9 21 18 81 21 135 7 115 17 148 55 167 52 27 77 17 210 -81 178
-132 288 -159 398 -99 30 17 74 54 100 85 103 122 145 160 182 166 55 9 98
-17 217 -131 59 -56 117 -107 129 -113 53 -29 93 -6 93 53 0 36 -44 119 -103
195 -29 36 -76 110 -105 165 -60 111 -92 151 -139 171 -43 19 -70 17 -120 -5z"/>
<path d="M1220 8223 c-28 -10 -50 -36 -50 -57 0 -39 140 -156 187 -156 18 0
23 7 28 38 3 20 12 58 21 85 8 26 12 52 9 57 -16 25 -153 48 -195 33z"/>
<path d="M5110 7701 c-50 -16 -89 -41 -128 -86 -49 -55 -71 -116 -79 -211 -11
-137 46 -241 161 -295 143 -68 291 -5 343 146 28 80 24 196 -10 269 -68 147
-173 211 -287 177z"/>
<path d="M10378 7496 c-99 -18 -199 -50 -268 -87 -148 -79 -306 -232 -367
-357 l-38 -76 0 -246 0 -247 47 -94 c53 -107 136 -222 239 -333 144 -154 426
-376 479 -376 16 0 -21 66 -131 233 -206 310 -276 506 -249 698 21 151 123
300 249 364 109 55 299 71 477 40 549 -96 1228 -624 1426 -1109 46 -111 67
-218 80 -398 13 -186 1 -484 -27 -658 -147 -903 -739 -2099 -1485 -3000 -145
-174 -480 -507 -633 -628 -336 -267 -653 -467 -917 -580 -234 -100 -659 -235
-845 -268 -204 -36 -1048 -29 -1340 12 -281 39 -673 172 -872 295 -119 74
-257 210 -273 267 -13 49 -2 98 28 125 30 27 140 73 272 112 580 176 1117 463
1634 874 159 127 570 534 685 680 290 366 404 652 487 1226 25 167 25 451 1
563 -56 261 -213 549 -397 726 -143 138 -288 223 -570 336 l-150 60 -173 0
-172 -1 200 -73 c206 -75 247 -93 350 -154 171 -101 393 -305 504 -462 273
-384 268 -931 -13 -1488 -253 -500 -753 -1049 -1310 -1435 -638 -443 -1357
-693 -2175 -757 -266 -20 -651 -11 -1016 26 -929 92 -1631 417 -2093 969 -269
320 -437 730 -483 1174 -22 213 -2 573 46 836 3 18 2 26 -4 20 -10 -11 -60
-210 -92 -364 -38 -184 -50 -315 -56 -581 -9 -425 24 -635 136 -867 131 -270
245 -439 406 -598 170 -169 384 -310 720 -475 459 -225 841 -332 1415 -397
133 -15 251 -18 820 -18 l664 0 65 -60 c35 -33 89 -98 119 -145 156 -241 467
-467 815 -589 221 -78 608 -167 837 -192 151 -17 684 -18 855 -1 205 21 448
61 590 97 446 115 1023 383 1420 660 495 345 986 889 1444 1597 563 873 835
1504 994 2308 59 298 62 326 61 695 0 313 -2 348 -22 442 -55 256 -199 535
-394 768 -91 109 -273 286 -388 379 -304 243 -711 448 -1030 517 -123 27 -464
35 -582 15z"/>
<path d="M2175 7192 c-76 -37 -166 -131 -189 -198 -46 -137 12 -282 139 -345
60 -29 71 -31 143 -27 61 3 89 11 131 33 213 117 223 430 16 537 -25 14 -66
23 -110 25 -62 4 -77 1 -130 -25z"/>
<path d="M5651 6643 c-7 -14 -25 -82 -42 -151 -51 -216 -101 -315 -206 -413
-155 -143 -412 -221 -733 -221 -227 0 -373 37 -449 112 -50 51 -49 105 8 276
46 138 48 162 18 227 -45 100 -141 145 -282 134 -176 -13 -335 -114 -335 -211
0 -37 42 -125 83 -174 42 -50 52 -97 44 -216 -5 -86 -16 -121 -55 -174 -35
-46 -135 -119 -222 -161 -72 -34 -80 -36 -209 -39 -152 -5 -281 9 -391 43
-146 45 -168 41 -99 -18 53 -46 154 -99 254 -133 70 -24 99 -28 235 -32 233
-6 333 22 489 137 89 65 140 90 224 107 79 17 114 12 172 -22 46 -27 156 -57
270 -76 122 -19 447 -16 570 6 263 47 490 157 626 303 223 240 265 568 88 699
-41 30 -43 30 -58 -3z"/>
<path d="M1920 5449 c-129 -25 -241 -122 -314 -271 -54 -110 -81 -209 -102
-377 -23 -172 -11 -261 50 -385 77 -156 192 -287 221 -253 21 23 37 87 30 120
-4 17 -30 87 -57 155 -62 155 -78 229 -78 367 0 203 52 367 145 460 111 112
281 134 407 54 56 -36 98 -86 144 -172 l34 -62 0 75 c0 98 -13 143 -57 190
-79 88 -261 131 -423 99z"/>
<path d="M6577 5137 c-176 -62 -338 -229 -524 -541 -182 -307 -320 -636 -373
-896 -18 -88 -21 -126 -17 -235 5 -131 25 -226 53 -254 12 -13 15 -10 28 20 8
20 31 92 52 160 48 165 99 291 194 484 186 378 443 762 563 843 62 41 92 52
148 52 128 0 203 -93 249 -308 61 -286 34 -655 -71 -951 -88 -249 -101 -295
-102 -362 -1 -51 4 -73 21 -101 67 -108 230 -83 318 48 66 98 151 320 200 519
61 249 53 768 -15 995 -42 140 -79 220 -147 316 -59 84 -132 147 -222 191 -71
35 -82 38 -181 41 -90 2 -116 -1 -174 -21z"/>
<path d="M2890 4404 c-195 -34 -289 -93 -346 -217 -26 -56 -29 -72 -29 -167 1
-197 81 -401 243 -620 76 -102 246 -270 362 -356 229 -172 828 -544 875 -544
15 0 1 38 -30 81 -49 65 -153 161 -395 362 -251 209 -448 400 -546 530 -87
115 -180 297 -196 383 -14 76 1 111 77 183 l54 51 69 0 c130 0 400 -44 584
-96 344 -96 460 -175 874 -591 183 -184 293 -288 317 -298 109 -45 207 15 207
128 0 63 -26 114 -110 220 -90 111 -357 386 -464 476 -340 287 -839 462 -1361
476 -88 2 -171 2 -185 -1z"/>
</g>
</svg>
